<?xml version="1.0" encoding="utf-8"?>
<!-- Generator: Adobe Illustrator 25.1.0, SVG Export Plug-In . SVG Version: 6.00 Build 0)  -->
<svg version="1.1" id="Lager_1" xmlns="http://www.w3.org/2000/svg" xmlns:xlink="http://www.w3.org/1999/xlink" x="0px" y="0px"
	 viewBox="0 0 727.3 87.3" style="enable-background:new 0 0 727.3 87.3;" xml:space="preserve">
<style type="text/css">
	.st0{clip-path:url(#SVGID_2_);}
</style>
<g>
	<g>
		<defs>
			<rect id="SVGID_1_" width="87.9" height="87.3"/>
		</defs>
		<clipPath id="SVGID_2_">
			<use xlink:href="#SVGID_1_"  style="overflow:visible;"/>
		</clipPath>
		<path class="st0" d="M51.9,47.4c-3.5-1.9-6.1-3-8.4-3.9c-2.6-1.1-4.8-2-8.1-4.1c-3.2-2-4.7-5.5-3.8-8.7c1.1-3.9,5.5-6.3,11.7-6.4
			c5.2-0.1,10.3,2,14,5.6l7.1-7.3C58.9,17,51.1,13.9,43.2,14c-5.6,0.1-10.3,1.4-14.1,4c-3.6,2.4-6.2,5.9-7.3,9.9
			C19.7,35.5,23,43.6,30,48c4,2.6,6.9,3.7,9.7,4.9c2.1,0.9,4.3,1.8,7.3,3.4c6,3.3,7.3,9.9,5.6,14.4c-1.8,4.6-6.3,6.9-12.5,6.6
			C23.3,75.3,10.2,61,10.2,43.7c0-6.7,2-13,5.4-18.3c-0.5-4.8-0.4-11.5,2.7-17.4c-1.9,1.4-3.8,2.9-5.5,4.7C4.6,20.9,0,32,0,43.7
			c0,11.7,4.6,22.8,12.9,31.1c5.2,5.2,11.4,8.9,18.2,11c3.8,1,8,1.5,12.6,1.2c13.4-1,18-9.1,19.5-16.1c0,0,0,0,0,0c0,0,0,0,0,0
			c0.7-3.7,0.5-7.7-0.8-11.4C60.5,54.4,56.8,50.1,51.9,47.4"/>
		<path class="st0" d="M75.1,12.6C70.8,8.3,65.7,5,60.3,2.9c-6.2-2.3-14-3.5-22.9-1.5c-15.1,3.4-18,14.3-18.5,19.8
			C25.1,14.3,34,10,44,10c18.6,0,33.8,15.1,33.8,33.8c0,9.5-3.9,18-10.2,24.2C67.2,72.5,66.1,78,63.9,83c4.1-2.1,7.9-4.8,11.2-8.1
			c8.3-8.3,12.9-19.3,12.9-31.1C87.9,32,83.4,20.9,75.1,12.6"/>
	</g>
	<path d="M48.5,32.9c-4.8-2.3-7.3-4.1-7.3-4.1s-4.5-0.2-4.5,4c0,3.5,4.4,4.1,15.2,8.8c14.3,6.3,15.4,20.1,15.4,20.1s3.5-14.2-8-22.8
		C55.8,36.5,55.4,36.1,48.5,32.9"/>
	<path d="M47.8,70.1c2.3-3,0.8-6.3,0.8-6.3s-3,1.5-9.2,0c-7.6-2-10.1-5.5-10.1-5.5l-5.8,6.1c0,0,5.7,5.8,14,7.6
		C42.3,73,45.6,72.9,47.8,70.1"/>
	<path d="M107.2,56.4c3.3,2.8,7.1,4.2,11.6,4.2c5.3-0.1,8-2,8.1-5.9c0-3.1-1.7-5-5.3-5.7c-1.6-0.2-3.5-0.5-5.4-0.8
		c-3.5-0.6-6.2-1.9-8-4c-1.9-2.1-2.8-4.8-2.8-7.8c0-3.7,1.2-6.7,3.6-8.9c2.3-2.2,5.6-3.4,9.8-3.4c5.1,0.1,9.5,1.6,13.3,4.4l-3.5,5.3
		c-3.1-2.1-6.4-3.2-10.1-3.3c-1.9,0-3.5,0.5-4.8,1.5c-1.3,1-2,2.6-2,4.6c0,1.2,0.5,2.3,1.4,3.3c0.9,1,2.4,1.7,4.4,2.1
		c1.1,0.2,2.7,0.4,4.6,0.7c3.8,0.5,6.7,2,8.5,4.3c1.8,2.3,2.7,4.9,2.7,7.9c-0.2,8.1-5,12.2-14.4,12.3c-6.1,0-11.3-1.9-15.6-5.8
		L107.2,56.4z"/>
	<path d="M135.3,36.6h6.2l6.8,21.1h0.1l6.8-21.1h6.2l-10.7,30.1h-4.8L135.3,36.6z"/>
	<path d="M169.4,53.9c0,2.4,0.7,4.3,2,5.5c1.3,1.3,2.9,1.9,4.9,1.9c2.4,0,4.5-1,6.4-2.9l4.2,3.7c-3,3.3-6.5,4.9-10.5,4.9
		c-1.5,0-3-0.2-4.5-0.7c-0.7-0.2-1.4-0.6-2.1-1c-0.7-0.4-1.4-0.8-2-1.4c-1.2-1.1-2.2-2.7-3-4.7c-0.8-1.9-1.3-4.4-1.3-7.5
		c0-3,0.4-5.4,1.1-7.4c0.7-2,1.7-3.6,2.8-4.7c1.2-1.2,2.5-2,3.9-2.5c1.4-0.5,2.8-0.8,4.2-0.8c3.3,0,6.1,1.2,8.4,3.4
		c2.3,2.3,3.5,5.4,3.6,9.3v5H169.4z M181.7,48.9c-0.1-2.3-0.7-4.1-1.8-5.3c-1.1-1.1-2.6-1.7-4.3-1.7c-1.8,0-3.2,0.6-4.3,1.7
		c-1.1,1.2-1.7,3-1.8,5.3H181.7z"/>
	<path d="M193.8,36.6h5.8v3.2h0.1c1.9-2.4,4.5-3.6,7.6-3.6c2.3,0,4.4,0.8,6.1,2.3l-4.3,5.2c-1.2-1-2.5-1.5-3.8-1.5
		c-1.5,0-2.8,0.5-3.8,1.5c-1.2,1-1.8,2.6-1.9,4.8v18.1h-5.8V36.6z"/>
	<path d="M216.3,24.4h5.8v6h-5.8V24.4z M216.3,36.6h5.8v30.1h-5.8V36.6z"/>
	<path d="M246,63.5c-1.9,2.2-4.4,3.4-7.5,3.5c-1.9,0-3.5-0.5-4.7-1.2c-1.3-0.8-2.3-1.6-3-2.4c-0.8-1-1.3-2.2-1.7-3.6
		c-0.4-1.4-0.5-4.1-0.5-8.1c0-4,0.2-6.8,0.5-8.2c0.3-1.4,0.9-2.6,1.7-3.6c0.7-0.9,1.7-1.8,3-2.5c1.3-0.7,2.8-1.1,4.7-1.1
		c2.9,0,5.4,1.2,7.5,3.6v-3.2h5.8v29.3c-0.1,4.5-1.3,7.8-3.8,10c-2.5,2.2-5.4,3.3-8.9,3.3c-3.9-0.1-7.3-1.8-10.1-5l4.5-3.7
		c0.7,0.7,1.6,1.3,2.6,1.8c1,0.6,2,0.9,3.1,0.9c2,0,3.6-0.6,4.8-1.7c1.2-1.2,1.8-2.8,1.8-4.8V63.5z M234.4,51.6
		c0,2.3,0.1,3.9,0.2,4.8c0.1,0.9,0.4,1.7,0.9,2.3c0.4,0.5,1,1,1.8,1.5c0.8,0.5,1.7,0.8,2.9,0.8s2.1-0.3,2.9-0.8
		c0.8-0.4,1.3-0.9,1.7-1.5c0.5-0.6,0.8-1.4,1-2.3c0.1-0.9,0.2-2.5,0.2-4.8c0-2.3-0.1-4-0.2-4.9c-0.2-0.9-0.5-1.6-1-2.2
		c-0.4-0.5-1-1.1-1.7-1.6c-0.8-0.4-1.7-0.7-2.9-0.7c-1.1,0-2.1,0.3-2.9,0.7c-0.8,0.5-1.4,1.1-1.8,1.6c-0.5,0.6-0.8,1.3-0.9,2.2
		C234.5,47.6,234.4,49.3,234.4,51.6z"/>
	<path d="M264,53.9c0,2.4,0.7,4.3,2,5.5c1.3,1.3,2.9,1.9,4.9,1.9c2.4,0,4.5-1,6.4-2.9l4.2,3.7c-3,3.3-6.5,4.9-10.5,4.9
		c-1.5,0-3-0.2-4.5-0.7c-0.7-0.2-1.4-0.6-2.1-1c-0.7-0.4-1.4-0.8-2-1.4c-1.2-1.1-2.2-2.7-3-4.7c-0.8-1.9-1.3-4.4-1.3-7.5
		c0-3,0.4-5.4,1.1-7.4c0.7-2,1.7-3.6,2.8-4.7c1.2-1.2,2.5-2,3.9-2.5c1.4-0.5,2.8-0.8,4.2-0.8c3.3,0,6.1,1.2,8.4,3.4
		c2.3,2.3,3.5,5.4,3.6,9.3v5H264z M276.3,48.9c-0.1-2.3-0.7-4.1-1.8-5.3c-1.1-1.1-2.6-1.7-4.3-1.7c-1.8,0-3.2,0.6-4.3,1.7
		c-1.1,1.2-1.7,3-1.8,5.3H276.3z"/>
	<path d="M289.4,57.4c2.4,2.6,5.5,3.9,9.2,3.9c1.7,0,3.1-0.3,4.1-1s1.6-1.6,1.6-2.8c0-1.1-0.3-1.8-1-2.3c-0.7-0.4-1.5-0.7-2.6-0.7
		l-5.2-0.5c-2.5-0.2-4.4-1.1-6-2.5c-1.6-1.4-2.4-3.4-2.4-6c0-3.1,1.1-5.4,3.2-7c2-1.5,4.6-2.3,7.7-2.3c1.3,0,2.6,0.1,3.6,0.3
		c1.1,0.2,2.1,0.5,3,0.8c1.8,0.8,3.4,1.8,4.8,3l-3.6,4.4c-1.1-0.8-2.3-1.5-3.6-2.1c-1.2-0.5-2.7-0.7-4.3-0.7c-1.8,0-3.1,0.3-3.9,1
		c-0.8,0.7-1.2,1.5-1.2,2.6c0,0.7,0.3,1.3,0.9,1.8c0.6,0.6,1.6,0.9,3,1.1l4.8,0.4c3,0.2,5.2,1.2,6.6,2.8c1.3,1.6,1.9,3.7,1.9,6.2
		c0,2.9-1.2,5.2-3.5,6.8c-2.2,1.6-5.1,2.5-8.6,2.5c-4.8,0-9-1.8-12.8-5.4L289.4,57.4z"/>
	<path d="M328.2,51.6c0-3.2,0.3-5.6,0.8-7.3c0.5-1.7,1.3-3.1,2.4-4.2c0.8-1,1.9-1.9,3.4-2.7c1.4-0.7,3.2-1.1,5.5-1.2
		c2.3,0,4.2,0.4,5.6,1.2c1.4,0.8,2.5,1.7,3.3,2.7c1.2,1.1,2,2.5,2.5,4.2c0.5,1.7,0.7,4.1,0.7,7.3s-0.2,5.6-0.7,7.2
		c-0.5,1.7-1.3,3.1-2.5,4.3c-0.4,0.4-0.8,0.9-1.4,1.3c-0.5,0.5-1.1,0.9-1.9,1.2c-1.4,0.8-3.3,1.3-5.6,1.3c-2.2,0-4-0.5-5.5-1.3
		c-1.4-0.8-2.6-1.6-3.4-2.5c-1.1-1.2-1.9-2.7-2.4-4.3C328.5,57.1,328.2,54.7,328.2,51.6z M346.4,51.6c0-2.2-0.1-3.7-0.3-4.7
		c-0.2-0.9-0.6-1.8-1.2-2.5c-0.4-0.7-1.1-1.2-1.9-1.6c-0.8-0.4-1.7-0.6-2.8-0.6c-1,0-1.9,0.2-2.8,0.6c-0.8,0.4-1.5,0.9-2,1.6
		c-0.5,0.7-0.9,1.5-1.1,2.5c-0.2,1-0.3,2.5-0.3,4.6c0,2.1,0.1,3.6,0.3,4.6c0.2,1,0.6,1.9,1.1,2.6c0.5,0.6,1.2,1.1,2,1.5
		c0.8,0.4,1.8,0.6,2.8,0.6c1.1,0,2-0.2,2.8-0.6c0.8-0.4,1.5-1,1.9-1.5c0.6-0.8,1-1.6,1.2-2.6C346.3,55.2,346.4,53.7,346.4,51.6z"/>
	<path d="M359.5,41.2h-3v-4.6h3v-4c0-2.9,0.8-5,2.3-6.3c1.5-1.3,3.4-1.9,5.6-1.9h3.8v5.7h-3.3c-1.8-0.1-2.6,0.8-2.5,2.5v4h5.9v4.6
		h-5.9v25.4h-5.8V41.2z"/>
	<path d="M373.1,41.2h-3v-4.6h3v-4c0-2.9,0.8-5,2.3-6.3c1.5-1.3,3.4-1.9,5.6-1.9h3.8v5.7h-3.3c-1.8-0.1-2.6,0.8-2.5,2.5v4h5.9v4.6
		h-5.9v25.4h-5.8V41.2z"/>
	<path d="M388.8,24.4h5.8v6h-5.8V24.4z M388.8,36.6h5.8v30.1h-5.8V36.6z"/>
	<path d="M423.1,61.8c-1.3,1.5-2.8,2.7-4.5,3.7c-1.7,1-3.7,1.5-6,1.5c-3.4,0-6.5-1.2-9-3.6c-2.7-2.4-4.1-6.3-4.1-11.7
		c0.1-5.5,1.5-9.4,4.1-11.9c2.6-2.4,5.6-3.6,9.1-3.6c2.3,0,4.3,0.5,6,1.4c1.7,0.9,3.2,2.2,4.5,3.8l-4.3,4c-1.5-2-3.5-3.1-5.9-3.2
		c-5-0.1-7.5,3.1-7.6,9.4c0.1,6.3,2.6,9.4,7.6,9.3c2.5,0,4.4-1.1,5.9-3.1L423.1,61.8z"/>
	<path d="M427.9,24.4h5.8v6h-5.8V24.4z M427.9,36.6h5.8v30.1h-5.8V36.6z"/>
	<path d="M446,53.9c0,2.4,0.7,4.3,2,5.5c1.3,1.3,2.9,1.9,4.9,1.9c2.4,0,4.5-1,6.4-2.9l4.2,3.7c-3,3.3-6.5,4.9-10.5,4.9
		c-1.5,0-3-0.2-4.5-0.7c-0.7-0.2-1.4-0.6-2.1-1c-0.7-0.4-1.4-0.8-2-1.4c-1.2-1.1-2.2-2.7-3-4.7c-0.8-1.9-1.3-4.4-1.3-7.5
		c0-3,0.4-5.4,1.1-7.4c0.7-2,1.7-3.6,2.8-4.7c1.2-1.2,2.5-2,3.9-2.5c1.4-0.5,2.8-0.8,4.2-0.8c3.3,0,6.1,1.2,8.4,3.4
		c2.3,2.3,3.5,5.4,3.6,9.3v5H446z M458.3,48.9c-0.1-2.3-0.7-4.1-1.8-5.3c-1.1-1.1-2.6-1.7-4.3-1.7s-3.2,0.6-4.3,1.7
		c-1.1,1.2-1.7,3-1.8,5.3H458.3z"/>
	<path d="M471,24.4h5.8v34.5c0,1.4,0.7,2.1,2.2,2.1h2v5.7h-2.6c-2.1,0-3.9-0.5-5.3-1.6c-1.5-1.1-2.2-3-2.2-5.6V24.4z"/>
	<path d="M484.8,24.4h5.8v34.5c0,1.4,0.7,2.1,2.2,2.1h2v5.7h-2.6c-2.1,0-3.9-0.5-5.3-1.6c-1.5-1.1-2.2-3-2.2-5.6V24.4z"/>
	<path d="M513.6,64h-0.1c-0.5,1-1.4,1.8-2.5,2.3c-1.1,0.5-2.7,0.8-4.7,0.8c-3.3,0-5.8-0.9-7.5-2.7c-1.9-1.7-2.8-3.9-2.8-6.5
		c0-2.5,0.8-4.6,2.4-6.3c1.6-1.7,4-2.6,7.1-2.6h8.1v-3.2c0-2.7-2-3.9-6-3.9c-1.5,0-2.6,0.2-3.5,0.5c-0.9,0.4-1.6,1-2.1,1.9l-4.6-3.6
		c2.2-3,5.5-4.5,9.8-4.4c3.7,0,6.6,0.7,8.8,2.1c2.2,1.5,3.3,4.1,3.3,7.8v20.5h-5.8V64z M513.6,53.9h-7c-3.4,0.1-5.1,1.3-5.1,3.6
		c0,1,0.4,1.9,1.3,2.6c0.8,0.8,2.2,1.2,4.2,1.2c2.5,0,4.2-0.3,5.2-0.9c0.9-0.6,1.4-2.1,1.4-4.3V53.9z"/>
	<path d="M542,57.4c2.4,2.6,5.5,3.9,9.2,3.9c1.7,0,3.1-0.3,4.1-1c1.1-0.7,1.6-1.6,1.6-2.8c0-1.1-0.3-1.8-1-2.3
		c-0.7-0.4-1.5-0.7-2.6-0.7l-5.2-0.5c-2.5-0.2-4.4-1.1-6-2.5c-1.6-1.4-2.4-3.4-2.4-6c0-3.1,1.1-5.4,3.2-7c2-1.5,4.6-2.3,7.7-2.3
		c1.3,0,2.6,0.1,3.6,0.3c1.1,0.2,2.1,0.5,3,0.8c1.8,0.8,3.4,1.8,4.8,3l-3.6,4.4c-1.1-0.8-2.3-1.5-3.6-2.1c-1.2-0.5-2.7-0.7-4.3-0.7
		c-1.8,0-3.1,0.3-3.9,1c-0.8,0.7-1.2,1.5-1.2,2.6c0,0.7,0.3,1.3,0.9,1.8c0.6,0.6,1.6,0.9,3,1.1l4.8,0.4c3,0.2,5.2,1.2,6.6,2.8
		c1.3,1.6,1.9,3.7,1.9,6.2c0,2.9-1.2,5.2-3.5,6.8c-2.2,1.6-5.1,2.5-8.6,2.5c-4.8,0-9-1.8-12.8-5.4L542,57.4z"/>
	<path d="M569.4,27.4h5.8v9.2h4.3v4.6h-4.3v17.5c0,1.5,0.7,2.3,2.1,2.2h2.2v5.7h-3.1c-2.1,0-3.7-0.7-5-2c-1.3-1.3-2-3.1-2-5.4v-18
		h-2.9v-4.6h2.9V27.4z"/>
	<path d="M600.4,64h-0.1c-0.5,1-1.4,1.8-2.5,2.3c-1.1,0.5-2.7,0.8-4.7,0.8c-3.3,0-5.8-0.9-7.5-2.7c-1.9-1.7-2.8-3.9-2.8-6.5
		c0-2.5,0.8-4.6,2.4-6.3c1.6-1.7,4-2.6,7.1-2.6h8.1v-3.2c0-2.7-2-3.9-6-3.9c-1.5,0-2.6,0.2-3.5,0.5c-0.9,0.4-1.6,1-2.1,1.9l-4.6-3.6
		c2.2-3,5.5-4.5,9.8-4.4c3.7,0,6.6,0.7,8.8,2.1c2.2,1.5,3.3,4.1,3.3,7.8v20.5h-5.8V64z M600.4,53.9h-7c-3.4,0.1-5.1,1.3-5.1,3.6
		c0,1,0.4,1.9,1.3,2.6c0.8,0.8,2.2,1.2,4.2,1.2c2.5,0,4.2-0.3,5.2-0.9c0.9-0.6,1.4-2.1,1.4-4.3V53.9z"/>
	<path d="M614.6,27.4h5.8v9.2h4.3v4.6h-4.3v17.5c0,1.5,0.7,2.3,2.1,2.2h2.2v5.7h-3.1c-2.1,0-3.7-0.7-5-2c-1.3-1.3-2-3.1-2-5.4v-18
		h-2.9v-4.6h2.9V27.4z"/>
	<path d="M630.5,24.4h5.8v6h-5.8V24.4z M630.5,36.6h5.8v30.1h-5.8V36.6z"/>
	<path d="M644.9,57.4c2.4,2.6,5.5,3.9,9.2,3.9c1.7,0,3.1-0.3,4.1-1c1.1-0.7,1.6-1.6,1.6-2.8c0-1.1-0.3-1.8-1-2.3
		c-0.7-0.4-1.5-0.7-2.6-0.7l-5.2-0.5c-2.5-0.2-4.4-1.1-6-2.5c-1.6-1.4-2.4-3.4-2.4-6c0-3.1,1.1-5.4,3.2-7c2-1.5,4.6-2.3,7.7-2.3
		c1.3,0,2.6,0.1,3.6,0.3c1.1,0.2,2.1,0.5,3,0.8c1.8,0.8,3.4,1.8,4.8,3l-3.6,4.4c-1.1-0.8-2.3-1.5-3.6-2.1c-1.2-0.5-2.7-0.7-4.3-0.7
		c-1.8,0-3.1,0.3-3.9,1c-0.8,0.7-1.2,1.5-1.2,2.6c0,0.7,0.3,1.3,0.9,1.8c0.6,0.6,1.6,0.9,3,1.1l4.8,0.4c3,0.2,5.2,1.2,6.6,2.8
		c1.3,1.6,1.9,3.7,1.9,6.2c0,2.9-1.2,5.2-3.5,6.8c-2.2,1.6-5.1,2.5-8.6,2.5c-4.8,0-9-1.8-12.8-5.4L644.9,57.4z"/>
	<path d="M672.4,27.4h5.8v9.2h4.3v4.6h-4.3v17.5c0,1.5,0.7,2.3,2.1,2.2h2.2v5.7h-3.1c-2.1,0-3.7-0.7-5-2c-1.3-1.3-2-3.1-2-5.4v-18
		h-2.9v-4.6h2.9V27.4z"/>
	<path d="M688.2,24.4h5.8v6h-5.8V24.4z M688.2,36.6h5.8v30.1h-5.8V36.6z"/>
	<path d="M701.8,24.4h5.8v26.3h0.1l11.2-14.1h7l-10,11.7l11.4,18.3H720l-7.7-14l-4.6,5.4v8.7h-5.8V24.4z"/>
</g>
</svg>
